<?xml version="1.0" standalone="no"?><!DOCTYPE svg PUBLIC "-//W3C//DTD SVG 1.1//EN" "http://www.w3.org/Graphics/SVG/1.1/DTD/svg11.dtd"><svg t="1735040924096" class="icon" viewBox="0 0 1024 1024" version="1.1" xmlns="http://www.w3.org/2000/svg" p-id="20953" xmlns:xlink="http://www.w3.org/1999/xlink" width="256" height="256"><path d="M632.46 421.578h240.946c33.16 0 60.469 26.803 60.469 60.469v391.36a60.469 60.469 0 0 1-60.469 60.468h-391.64a60.469 60.469 0 0 1-60.47-60.44V632.627h120.46a90 90 0 0 0 90.225-90.169l0.478-120.88zM90.124 150.594a60.469 60.469 0 0 1 60.469-60.469h391.64c33.188 0 60.47 26.803 60.47 60.44v391.416a60.469 60.469 0 0 1-60.47 60.44h-391.64a60.469 60.469 0 0 1-60.469-60.468v-391.36z m120.46 260.297h43.874v-23.4h63.422v111.121h46.828V387.491h64.857v19.49h47.812V259.27H364.71v-32.175c0-9.76 1.463-17.55 3.91-24.385 0.478-0.956 0.956-2.418 1.462-3.88 0-0.985-2.925-1.463-9.281-2.448h-43.875v63.366H210.612v151.115z m43.874-115.538h63.422v57.038h-63.393v-57.066z m175.107 57.038h-64.857v-57.066h64.857v57.038z m191.672 459.168l18.056-50.709h94.612l18.057 50.71h51.693l-84.375-239.344h-60.975l-86.794 239.343h49.726z m31.218-90.168l35.128-102.375h1.463l32.175 102.375h-68.766z m220.95-389.982h-60.468A120.375 120.375 0 0 0 692.45 211.034v-60.468a180.844 180.844 0 0 1 180.956 180.843zM150.594 692.563h60.468A120.375 120.375 0 0 0 331.55 812.938v60.468a180.844 180.844 0 0 1-180.956-180.843z" fill="#3882F5" p-id="20954"></path></svg>